<?xml version="1.0" standalone="no"?><!DOCTYPE svg PUBLIC "-//W3C//DTD SVG 1.1//EN" "http://www.w3.org/Graphics/SVG/1.1/DTD/svg11.dtd"><svg t="1751728870372" class="icon" viewBox="0 0 1024 1024" version="1.1" xmlns="http://www.w3.org/2000/svg" p-id="3956" xmlns:xlink="http://www.w3.org/1999/xlink" width="200" height="200"><path d="M460.032 301.0048l3.1232 3.1744 184.0128 204.0832 176.896-210.5856a40.7552 40.7552 0 0 1 48.9984-10.3424l4.0448 2.2528 4.096 2.9696a42.496 42.496 0 0 1 9.728 54.0672l-2.56 4.0448-172.1856 234.2912 102.7072 114.176 7.3728-2.2016a151.808 151.808 0 0 1 159.6416 55.6032l4.4544 6.2464 4.608 7.168a151.04 151.04 0 0 1-31.9488 192.6656c-56.32 47.8208-138.752 48.3328-195.072 1.0752a151.04 151.04 0 0 1-44.8512-169.5232l2.8672-7.0656 3.584-7.6288-90.1632-113.8176-51.9168-65.9456-186.8288-236.4928a42.6496 42.6496 0 0 1 4.9152-58.2144 40.448 40.448 0 0 1 54.4768 0z m333.7216 534.6816a77.0048 77.0048 0 0 0 68.352 82.8928 76.6976 76.6976 0 1 0 77.2608-109.056 76.0832 76.0832 0 0 0-64.1024-43.52 76.4416 76.4416 0 0 0-81.5104 69.632z" fill="#f4645f" p-id="3957"></path><path d="M561.664 610.0992l70.656 89.2416-57.856 78.848 3.84 7.5264a151.3984 151.3984 0 0 1-23.8592 166.0416l-5.4784 5.8368-6.4 6.0416a151.4496 151.4496 0 1 1-74.752-261.9904l7.2704 1.4336 7.424 1.8944 79.2064-94.8736z m-126.8224 163.84a76.4416 76.4416 0 0 0-65.1776 85.0944c4.9152 41.5744 41.984 71.2704 83.712 67.0208a76.1856 76.1856 0 0 0 62.6176-45.6704 77.0048 77.0048 0 0 0-9.4208-77.0048 77.312 77.312 0 0 0-71.68-29.3888zM101.9904 764.416v47.616c0 18.0224 13.6192 32.9216 31.1296 34.9184l4.096 0.256h85.8112v82.7904H89.6c-38.912 0-70.4-31.488-70.4-70.4v-95.232h82.7904z m0-165.632v82.8416H19.2v-82.8416h82.7904z m0-165.5808v82.7904H19.2V433.2032h82.7904z m0-165.5808v82.7904H19.2V267.6224h82.7904zM859.648 19.2c38.912 0 70.4 31.5392 70.4 70.4v95.232h-82.7904v-47.616a35.2256 35.2256 0 0 0-31.0784-34.9696l-4.096-0.256h-47.616V19.2h95.232z m-674.816 0v82.7904h-47.616a35.2256 35.2256 0 0 0-34.9184 31.1296l-0.256 4.096v47.616H19.2V89.6C19.2 50.688 50.7392 19.2 89.6 19.2h95.232z m165.632 0v82.7904H267.6224V19.2h82.7904z m165.5808 0v82.7904H433.2032V19.2h82.7904z m165.632 0v82.7904h-82.8416V19.2h82.8416z" fill="#f4645f" p-id="3958"></path></svg>