<?xml version="1.0" standalone="no"?><!DOCTYPE svg PUBLIC "-//W3C//DTD SVG 1.1//EN" "http://www.w3.org/Graphics/SVG/1.1/DTD/svg11.dtd"><svg t="1752681517738" class="icon" viewBox="0 0 1024 1024" version="1.1" xmlns="http://www.w3.org/2000/svg" p-id="3445" xmlns:xlink="http://www.w3.org/1999/xlink" width="256" height="256"><path d="M511.936 726.144c-115.968 0-210.304-96.32-210.304-214.72S395.968 296.64 512 296.64s210.304 96.32 210.304 214.784c0 118.4-94.336 214.72-210.304 214.72z m0-332.8c-63.744 0-115.584 52.992-115.584 118.08s51.84 118.016 115.584 118.016 115.584-52.928 115.584-118.016c0-65.088-51.84-118.08-115.584-118.08z" fill="#f4645f" p-id="3446"></path><path d="M441.28 1022.656a47.296 47.296 0 0 1-42.688-27.392l-43.84-92.992a416.64 416.64 0 0 1-56-28.032l-94.4 23.04a46.72 46.72 0 0 1-48-16.896l-88.32-113.088a49.216 49.216 0 0 1-5.376-51.52l44.8-92.544a438.336 438.336 0 0 1-12.16-57.28l-76.608-60.8a48.896 48.896 0 0 1-17.152-48.832l31.232-141.056a47.872 47.872 0 0 1 36.032-36.544l98.816-22.208c10.816-15.552 22.528-30.4 35.2-44.352l-1.664-99.2a48.512 48.512 0 0 1 26.496-44.224L354.752 5.056a46.528 46.528 0 0 1 50.496 5.76l78.912 64.576c20.16-1.344 39.36-1.28 59.776 0.384L619.072 12.928a46.592 46.592 0 0 1 50.368-6.208l127.808 62.272a48.448 48.448 0 0 1 26.88 43.968l-0.64 103.296c12.416 14.08 23.872 28.928 34.368 44.48l95.04 20.096c17.984 3.84 32.192 17.92 36.48 36.16l32.768 140.608a48.896 48.896 0 0 1-16.512 49.024l-79.04 64.384a436.032 436.032 0 0 1-12.096 54.528l44.544 88a49.216 49.216 0 0 1-4.48 51.648l-86.272 114.624a46.656 46.656 0 0 1-47.744 17.792l-98.752-22.208a415.04 415.04 0 0 1-55.552 27.52l-40.32 90.112a47.36 47.36 0 0 1-42.624 28.224l-141.568 1.408h-0.448z m-134.336-248.512c9.152 0 18.176 2.752 25.984 7.936 22.4 14.976 46.528 27.072 71.68 36.032a47.68 47.68 0 0 1 27.2 24.704l39.04 82.816 81.408-0.768 36.032-80.448a47.744 47.744 0 0 1 27.84-25.728 320.896 320.896 0 0 0 71.488-35.264 46.592 46.592 0 0 1 35.84-6.592l88.064 19.712 49.6-65.92-39.808-78.592a49.28 49.28 0 0 1-2.56-38.144c8.192-23.936 13.696-48.768 16.32-73.792a48.64 48.64 0 0 1 17.6-32.64l70.4-57.28-18.88-80.896-84.864-17.92a47.424 47.424 0 0 1-30.72-21.952 332.544 332.544 0 0 0-46.208-60.032 48.896 48.896 0 0 1-13.76-34.368l0.64-91.968-73.472-35.84-67.072 56.128a46.912 46.912 0 0 1-35.968 10.624 310.976 310.976 0 0 0-78.144-0.64 46.848 46.848 0 0 1-34.88-10.368l-70.272-57.536-73.088 36.608 1.472 88.576a49.024 49.024 0 0 1-14.208 35.392c-17.92 17.92-33.856 37.888-47.36 59.52a47.36 47.36 0 0 1-29.76 21.312l-88 19.712-17.92 81.088 68.352 54.4a48.64 48.64 0 0 1 18.112 33.6c2.368 25.728 7.744 51.264 16 75.904a49.28 49.28 0 0 1-2.304 37.12l-39.872 82.432 50.752 64.96 84.288-20.48a46.272 46.272 0 0 1 11.008-1.408z" fill="#f4645f" p-id="3447"></path></svg>